<svg width="24.000000" height="24.000000" viewBox="0 0 24 24" fill="none" xmlns="http://www.w3.org/2000/svg" xmlns:xlink="http://www.w3.org/1999/xlink">
	<desc>
			Created with Pixso.
	</desc>
	<defs/>
	<rect id="Rectangle 11" width="24.000000" height="24.000000" fill="#D8D8D8" fill-opacity="0"/>
	<rect id="Rectangle 11" width="24.000000" height="24.000000" stroke="#979797" stroke-opacity="0" stroke-width="0.000000"/>
	<path id="Shape" d="M4 4L20 4C21.1 4 22 4.8999 22 6L22 18C22 19.1001 21.1 20 20 20L4 20C2.89999 20 2 19.1001 2 18L2 6C2 4.8999 2.89999 4 4 4ZM18 18L20 18L20 6L18.8 6L12 10.2L5.20001 6L4 6L4 18L6 18L6 9.19995L12 13L18 9.19995L18 18Z" clip-rule="evenodd" fill="#FFFFFF" fill-opacity="1.000000" fill-rule="evenodd"/>
</svg>
